<?xml version="1.0" encoding="UTF-8" standalone="no"?>
<svg
   xmlns="http://www.w3.org/2000/svg"
   viewBox="0 0 1200 1200">
  <g transform="rotate(45 600 600)">
    <path d="M1072.72 846.99c-28.73-34.45-77.39-61.02-135.3-75.44l-129.92-31.86 108.15-52.59c54.15-26.32 93.86-64.45 111.89-109.73 17.84-44.89 11.94-92.51-17.03-134.61-25.46-37.17-61.91-63.45-103.77-74.15l-124.25-31.41c-29.03-7.34-57.54-21.55-82.69-41.33-24.86-19.55-41.53-43.2-49.83-69.12-7.95-24.91-23.62-46.39-45.15-62.49-21.65-16.2-47.96-24.48-75.32-23.64-27.59.83-53.5 10.43-74.12 27.53-20.31 16.81-34.15 39.97-39.87 66.41-9.43 43.24-45.12 77.41-87.81 88.19l-116.2 29.78c-41.64 10.67-76.06 33.73-97.58 65.77-21.93 32.7-28.89 71.93-19.83 110.35 9.18 38.73 31.86 72.15 63.99 94.23l.41.28c28.68 19.91 44.32 52.79 41.69 86.94l-8.02 100.33c-2.74 34.31 8.32 66.52 31.26 89.39 22.79 22.73 55.44 33.97 90.01 31.54l156.6-10.74c32.46-2.23 64.3 7.43 89.88 26.71l195.88 151.37c39.15 30.26 87.64 49.24 137.46 53.65 49.92 4.41 98.22-6.01 137.19-29.69 38.52-23.36 66.48-57.93 80.72-99.03 14.45-41.67 13.22-85.41-3.45-123.28-8.57-19.3-19.9-36.89-33.45-51.39z" fill="#000"/>
  </g>
</svg>
